<?xml version="1.0" encoding="utf-8"?>
<svg width="547px" height="129px" viewBox="0 0 547 129" version="1.1" xmlns:xlink="http://www.w3.org/1999/xlink" xmlns="http://www.w3.org/2000/svg">
  <g id="Notate" fill="#BCBCBC" transform="translate(0 31.199097)">
    <path d="M80.5824 92.1364L80.5824 4.86364L62.2159 4.86364L62.2159 59.75L61.4489 59.75L23.7784 4.86364L7.58523 4.86364L7.58523 92.1364L26.0369 92.1364L26.0369 37.2074L26.6761 37.2074L64.6449 92.1364L80.5824 92.1364ZM203.906 26.6818L203.906 40.3182L191.591 40.3182L191.591 72.0227Q191.591 75.7727 193.295 77.0938Q195 78.4148 197.727 78.4148Q199.006 78.4148 200.284 78.1804Q201.563 77.946 202.244 77.8182L205.099 91.3267Q203.736 91.7528 201.264 92.3281Q198.793 92.9034 195.256 93.0313Q185.369 93.4574 179.382 88.7486Q173.395 84.0398 173.438 74.4091L173.438 40.3182L164.489 40.3182L164.489 26.6818L173.438 26.6818L173.438 11L191.591 11L191.591 26.6818L203.906 26.6818ZM320.156 26.6818L320.156 40.3182L307.841 40.3182L307.841 72.0227Q307.841 75.7727 309.545 77.0938Q311.25 78.4148 313.977 78.4148Q315.256 78.4148 316.534 78.1804Q317.813 77.946 318.494 77.8182L321.349 91.3267Q319.986 91.7528 317.514 92.3281Q315.043 92.9034 311.506 93.0313Q301.619 93.4574 295.632 88.7486Q289.645 84.0398 289.688 74.4091L289.688 40.3182L280.739 40.3182L280.739 26.6818L289.688 26.6818L289.688 11L307.841 11L307.841 26.6818L320.156 26.6818ZM107.876 89.1747Q115.099 93.4148 125.028 93.4148Q134.957 93.4148 142.18 89.1747Q149.403 84.9347 153.324 77.3281Q157.244 69.7216 157.244 59.6648Q157.244 49.5227 153.324 41.9162Q149.403 34.3097 142.18 30.0696Q134.957 25.8296 125.028 25.8296Q115.099 25.8296 107.876 30.0696Q100.653 34.3097 96.733 41.9162Q92.8125 49.5227 92.8125 59.6648Q92.8125 69.7216 96.733 77.3281Q100.653 84.9347 107.876 89.1747ZM218.821 88.4716Q225 93.3722 234.375 93.3722Q241.619 93.3722 246.371 90.4957Q251.122 87.6193 253.509 83.0597L254.02 83.0597L254.02 92.1364L271.236 92.1364L271.236 47.9886Q271.236 40.1903 267.337 35.3111Q263.438 30.4318 257.088 28.1307Q250.739 25.8296 243.452 25.8296Q231.69 25.8296 224.254 31.071Q216.818 36.3125 214.943 45.2614L231.733 46.625Q232.67 43.3438 235.568 41.2131Q238.466 39.0824 243.366 39.0824Q248.011 39.0824 250.547 41.2983Q253.082 43.5142 253.082 47.5625L253.082 47.8182Q253.082 50.9716 249.418 51.9091Q245.753 52.8466 237.23 53.6989Q230.753 54.2955 225.149 56.2344Q219.545 58.1733 216.094 62.3494Q212.642 66.5256 212.642 73.8551Q212.642 83.571 218.821 88.4716ZM344.446 89.3026Q351.733 93.4148 361.79 93.4148Q373.935 93.4148 381.733 87.9602Q389.531 82.5057 391.449 73.3864L374.659 72.2784Q373.295 76.0284 369.972 77.946Q366.648 79.8636 362.088 79.8636Q355.27 79.8636 351.264 75.6449Q347.259 71.4261 347.259 64.0966L347.259 64.054L391.832 64.054L391.832 59.0682Q391.832 47.946 387.741 40.5526Q383.651 33.1591 376.683 29.4943Q369.716 25.8296 361.065 25.8296Q351.435 25.8296 344.297 30.0909Q337.159 34.3523 333.239 41.9801Q329.318 49.608 329.318 59.7074Q329.318 70.0625 333.239 77.6264Q337.159 85.1903 344.446 89.3026ZM374.744 52.804L347.259 52.804Q347.557 47.2216 351.435 43.3011Q355.313 39.3807 361.364 39.3807Q367.287 39.3807 370.994 43.1733Q374.702 46.9659 374.744 52.804ZM135.32 73.7273Q131.847 79.3523 125.114 79.3523Q118.253 79.3523 114.759 73.7273Q111.264 68.1023 111.264 59.5369Q111.264 50.9716 114.759 45.3253Q118.253 39.679 125.114 39.679Q131.847 39.679 135.32 45.3253Q138.793 50.9716 138.793 59.5369Q138.793 68.1023 135.32 73.7273ZM249.375 77.3707Q245.54 80.8438 239.574 80.8438Q235.398 80.8438 232.692 78.9261Q229.986 77.0085 229.986 73.2585Q229.986 69.4233 232.905 67.4205Q235.824 65.4176 240.597 64.7358Q242.599 64.4375 245.135 64.0327Q247.67 63.6278 249.908 63.0739Q252.145 62.5199 253.21 61.7955L253.21 68.7415Q253.21 73.8977 249.375 77.3707Z" />
  </g>
  <g id="pen-Copy" transform="translate(395 0)">
    <g id="Group">
      <g id="Group#1">
        <g id="Group#2">
          <path d="M10.9249 12.5394C10.6784 12.6044 8.13704 14.9448 5.2876 17.9352C3.00806 20.3081 0.836303 22.6322 0.26641 23.4611C-0.488284 24.5337 0.51285 24.8588 1.37539 24.1436C2.23793 23.4448 4.73311 21.2019 9.2768 20.2593C14.3596 19.2029 16.4851 18.1953 18.395 13.0757C19.1651 11.0117 19.8429 9.15891 20.4128 7.59865C21.5063 4.57571 21.5834 1.29271 20.4744 0.203795C19.3654 -0.86886 15.1451 2.39787 11.0943 7.53364C10.9249 7.76117 10.74 7.97246 10.5706 8.19998C6.5198 13.352 4.81012 15.9849 6.70464 14.0509C8.33727 12.4094 9.95451 10.7679 10.1547 10.5728C10.5398 10.199 11.1713 10.3941 11.464 10.7516C11.8336 11.2229 11.772 11.9218 11.3253 12.3118C11.2021 12.4256 11.0635 12.4906 10.9249 12.5394" transform="translate(0 97.67389)" id="path3758" fill="#BCBCBC" fill-rule="evenodd" stroke="none" />
          <path d="M85.3517 1.11073C42.5331 44.0658 28.2859 57.978 5.72138 85.5421C1.57816 90.6128 -0.840005 95.6348 0.268977 96.74C1.37793 97.8289 12.8373 97.0325 19.5681 90.7592C27.1769 85.3958 87.3232 5.79144 88.6016 4.08492C90.6347 1.35451 88.1241 -1.68469 85.3517 1.11073" transform="translate(21.129517 0)" id="path3762" fill="#BCBCBC" fill-rule="evenodd" stroke="none" />
        </g>
      </g>
    </g>
  </g>
</svg>