<?xml version="1.0" encoding="utf-8"?>
<svg width="268px" height="81px" viewBox="0 0 268 81" version="1.1" xmlns:xlink="http://www.w3.org/1999/xlink" xmlns="http://www.w3.org/2000/svg">
  <g id="UpNote" fill="#404040" transform="translate(0 4.699066)">
    <path d="M36.2285 42.6689L36.2285 17.7256L28.0811 17.7256L28.0811 41.2715Q28.0811 45.7539 26.2749 47.8501Q24.4688 49.9463 20.4609 49.9463Q16.3213 49.9463 14.5283 47.8633Q12.7353 45.7803 12.7354 41.3242L12.7354 17.7256L4.58789 17.7256L4.58789 42.5635Q4.58789 49.1816 8.70117 52.9917Q12.8145 56.8018 20.25 56.8018Q25.1807 56.8018 28.793 55.0879Q32.4053 53.374 34.3169 50.1572Q36.2285 46.9404 36.2285 42.6689ZM114.038 56.2744L103.649 56.2744L86.8799 27.1123L86.6426 27.1123Q87.1436 34.8379 87.1436 38.1338L87.1436 56.2744L79.8398 56.2744L79.8398 17.7256L90.1494 17.7256L106.893 46.5977L107.077 46.5977Q106.682 39.083 106.682 35.9717L106.682 17.7256L114.038 17.7256L114.038 56.2744ZM168.961 50.3945Q171.07 50.3945 174.023 49.4717L174.023 55.457Q171.018 56.8018 166.641 56.8018Q161.815 56.8018 159.614 54.3628Q157.412 51.9238 157.412 47.0459L157.412 32.834L153.563 32.834L153.563 29.4326L157.992 26.7432L160.313 20.5205L165.454 20.5205L165.454 26.7959L173.707 26.7959L173.707 32.834L165.454 32.834L165.454 47.0459Q165.454 48.7598 166.417 49.5771Q167.379 50.3945 168.961 50.3945ZM53.0771 53.0313Q56.0303 56.8018 61.2246 56.8018Q64.6787 56.8018 67.2363 54.9824Q69.7939 53.1631 71.1782 49.6826Q72.5625 46.2021 72.5625 41.4824Q72.5625 34.3105 69.6094 30.2764Q66.6563 26.2422 61.4355 26.2422Q55.8984 26.2422 53.0771 30.6191L52.708 30.6191L51.5742 26.7959L45.0352 26.7959L45.0352 69.2471L53.0771 69.2471L53.0771 57.3027Q53.0771 56.7227 52.6553 53.0313L53.0771 53.0313ZM146.101 52.7412Q149.897 48.6807 149.897 41.4824Q149.897 36.8418 148.157 33.3877Q146.417 29.9336 143.174 28.0879Q139.931 26.2422 135.686 26.2422Q128.856 26.2422 125.086 30.25Q121.315 34.2578 121.315 41.4824Q121.315 46.123 123.056 49.6035Q124.796 53.084 128.039 54.9429Q131.282 56.8018 135.527 56.8018Q142.304 56.8018 146.101 52.7412ZM182.197 52.873Q186.205 56.8018 193.324 56.8018Q196.778 56.8018 199.178 56.2876Q201.577 55.7734 203.687 54.7188L203.687 48.4961Q201.103 49.709 198.729 50.2627Q196.356 50.8164 193.693 50.8164Q190.266 50.8164 188.367 48.8916Q186.469 46.9668 186.337 43.5391L205.348 43.5391L205.348 39.6367Q205.348 33.3613 201.867 29.8018Q198.387 26.2422 192.138 26.2422Q185.599 26.2422 181.894 30.2896Q178.189 34.3369 178.189 41.7461Q178.189 48.9443 182.197 52.873ZM188.183 33.5854Q189.633 31.9639 192.19 31.9639Q194.748 31.9639 196.251 33.5854Q197.754 35.207 197.807 38.1865L186.521 38.1865Q186.732 35.207 188.183 33.5854ZM54.501 34.5083Q55.8721 32.6758 58.8516 32.6758Q61.6992 32.6758 63.0308 34.8511Q64.3623 37.0264 64.3623 41.377Q64.3623 50.2891 58.957 50.2891Q55.8984 50.2891 54.4878 48.2324Q53.0771 46.1758 53.0771 41.4297L53.0771 40.5596Q53.1299 36.3408 54.501 34.5083ZM130.953 48.1006Q129.516 45.8594 129.516 41.4824Q129.516 37.0791 130.939 34.9038Q132.363 32.7285 135.58 32.7285Q138.823 32.7285 140.247 34.917Q141.671 37.1055 141.671 41.4824Q141.671 45.8857 140.26 48.1138Q138.85 50.3418 135.633 50.3418Q132.39 50.3418 130.953 48.1006Z" />
  </g>
  <g id="pen" transform="translate(211.00003 0)">
    <g id="Group">
      <g id="Group">
        <g id="Group">
          <path d="M5.58463 6.07468C5.45865 6.10618 4.15953 7.23996 2.70294 8.68867C1.53767 9.8382 0.427511 10.9641 0.136192 11.3657C-0.249606 11.8853 0.262168 12.0428 0.703082 11.6963C1.144 11.3578 2.41949 10.2712 4.74216 9.81458C7.34041 9.3028 8.42694 8.81465 9.40325 6.33451C9.79692 5.33458 10.1434 4.43701 10.4347 3.68115C10.9937 2.21669 11.0331 0.626249 10.4662 0.0987258C9.89928 -0.420921 7.74195 1.16164 5.67123 3.64965C5.58463 3.75988 5.49015 3.86224 5.40354 3.97246C3.33282 6.46835 2.45886 7.74385 3.4273 6.80691C4.26189 6.01169 5.0886 5.21647 5.19095 5.12199C5.38779 4.9409 5.7106 5.03538 5.8602 5.20859C6.04916 5.43693 6.01767 5.77548 5.78934 5.96444C5.72635 6.01957 5.65549 6.05106 5.58463 6.07468" transform="translate(0 47.3179)" id="path3758" fill="#404040" fill-rule="evenodd" stroke="none" />
          <path d="M43.6305 0.538088C21.7423 21.3476 14.4593 28.0873 2.92469 41.4407C0.806734 43.8972 -0.4294 46.3301 0.13749 46.8655C0.70438 47.393 6.56223 47.0072 10.0029 43.9681C13.8924 41.3698 44.6383 2.80565 45.2918 1.97893C46.3311 0.65619 45.0477 -0.816148 43.6305 0.538088" transform="translate(10.801086 0)" id="path3762" fill="#404040" fill-rule="evenodd" stroke="none" />
        </g>
      </g>
    </g>
  </g>
</svg>