<?xml version="1.0" encoding="utf-8"?>
<!-- Svg Vector Icons : http://www.onlinewebfonts.com/icon -->
<!DOCTYPE svg PUBLIC "-//W3C//DTD SVG 1.1//EN" "http://www.w3.org/Graphics/SVG/1.1/DTD/svg11.dtd">
<svg version="1.1" xmlns="http://www.w3.org/2000/svg" xmlns:xlink="http://www.w3.org/1999/xlink" x="0px" y="0px" viewBox="0 0 1000 1000" enable-background="new 0 0 1000 1000" xml:space="preserve">
<metadata> Svg Vector Icons : http://www.onlinewebfonts.com/icon </metadata>
<g><g><g><path id="path3758" d="M343.7,797.1c-1.6,0.4-18.1,14.8-36.6,33.2c-14.8,14.6-28.9,28.9-32.6,34c-4.9,6.6,1.6,8.6,7.2,4.2c5.6-4.3,21.8-18.1,51.3-23.9c33-6.5,46.8-12.7,59.2-44.2c5-12.7,9.4-24.1,13.1-33.7c7.1-18.6,7.6-38.8,0.4-45.5c-7.2-6.6-34.6,13.5-60.9,45.1c-1.1,1.4-2.3,2.7-3.4,4.1c-26.3,31.7-37.4,47.9-25.1,36c10.6-10.1,21.1-20.2,22.4-21.4c2.5-2.3,6.6-1.1,8.5,1.1c2.4,2.9,2,7.2-0.9,9.6C345.5,796.4,344.6,796.8,343.7,797.1"/><path id="path3760" d="M24.5,841.7c3.3-0.8,22.3-4.2,28.6-4.3c1.2,0,1.7,1.2,1.1,1.7c-2.5,2-9,4.8-9.9,5.3c-16.5,9-17.4,16.6-17.1,20.3c1.1,10.2,15.5,18.7,68.1,15.5c21.7-1.8,42.8-5.7,62.4-8.9c19.6-3.3,44-6.3,53.4-6.3c28.5,0,30.7,8,52.2,8c1.9,0,3.4-0.4,3.4-2.5c0-2.1-2.1-2.5-3.3-2.6c-18.1,0-22.7-11.7-52.4-11.6c-16.3-0.1-21.4-0.4-65.9,5.8c-44.5,6.2-97.5,8.9-97.5-0.2c0-5.2,36.8-15,36.8-30c0-8-10.1-19.4-63.8-9.8c-4.7,0.9-10.9,4-10.5,10.8C10.4,839.2,15.4,844.2,24.5,841.7"/><path id="path3762" d="M964.1,125.8c-278,264.3-370.5,349.9-517,519.5c-26.9,31.2-42.6,62.1-35.4,68.9c7.2,6.7,81.6,1.8,125.3-36.8c49.4-33,439.9-522.8,448.2-533.3C998.4,127.3,982.1,108.6,964.1,125.8"/></g></g><g></g><g></g><g></g><g></g><g></g><g></g><g></g><g></g><g></g><g></g><g></g><g></g><g></g><g></g><g></g></g>
</svg>