<?xml version="1.0" encoding="utf-8"?>
<svg width="32px" height="32px" viewBox="0 0 32 32" version="1.1" xmlns:xlink="http://www.w3.org/1999/xlink" xmlns="http://www.w3.org/2000/svg">
  <defs>
    <path d="M0 0L32 0L32 32L0 32L0 0Z" id="path_1" />
    <clipPath id="mask_1">
      <use xlink:href="#path_1" />
    </clipPath>
  </defs>
  <g id="trash-alt">
    <path d="M0 0L32 0L32 32L0 32L0 0Z" id="Background" fill="none" fill-rule="evenodd" stroke="none" />
    <g clip-path="url(#mask_1)">
      <path d="M8 0C7.47656 0 6.94141 0.183594 6.5625 0.5625C6.18359 0.941406 6 1.47656 6 2L6 3L0 3L0 5L1 5L1 21C1 22.6445 2.35547 24 4 24L16 24C17.6445 24 19 22.6445 19 21L19 5L20 5L20 3L14 3L14 2C14 1.47656 13.8164 0.941406 13.4375 0.5625C13.0586 0.183594 12.5234 0 12 0L8 0ZM8 2L12 2L12 3L8 3L8 2ZM3 5L17 5L17 21C17 21.5547 16.5547 22 16 22L4 22C3.44531 22 3 21.5547 3 21L3 5ZM5 8L5 19L7 19L7 8L5 8ZM9 8L9 19L11 19L11 8L9 8ZM13 8L13 19L15 19L15 8L13 8Z" transform="translate(7 4)" id="Shape" fill="#6B6F75" fill-rule="evenodd" stroke="none" />
    </g>
  </g>
</svg>